<svg style="margin:0 8px;width:24px;height:24px" viewBox="0 0 24 24" fill="none" xmlns="http://www.w3.org/2000/svg">
<path fill-rule="evenodd" clip-rule="evenodd" d="M6 2C6.5 2 6.9 2.3 7 2.8L8 7L21 7C21.3 7 21.6 7.1 21.8 7.4C22 7.6 22 7.9 22 8.2L20 16.2C19.9 16.7 19.5 17 19 17L9 17C8.5 17 8.1 16.7 8 16.2L5.2 4L2 4V2L6 2ZM9.8 15L18.2 15L19.7 9L8.4 9L9.8 15ZM18 22C16.8954 22 16 21.1046 16 20C16 18.8954 16.8954 18 18 18C19.1046 18 20 18.8954 20 20C20 21.1046 19.1046 22 18 22ZM8 20C8 21.1046 8.89543 22 10 22C11.1046 22 12 21.1046 12 20C12 18.8954 11.1046 18 10 18C8.89543 18 8 18.8954 8 20Z" fill="#333333"></path>
</svg>