<svg style="margin:0 8px;width:24px;height:24px" xmlns="http://www.w3.org/2000/svg" viewBox="0 0 24 24" enable-background="new 0 0 24 24" class="Svg-sc-1w4q54b iyEeRT">
<path d="M2 8L18 8V11L20 11L20 7C20 6.9 20 6.8 19.9 6.7V6.6C19.9 6.6 19.9 6.5 19.8 6.5L15.8 0.5C15.6 0.2 15.3 0 15 0L5 0C4.7 0 4.4 0.2 4.2 0.4L0.2 6.4C0.2 6.4 0.2 6.5 0.1 6.5L0.1 6.6C0 6.8 0 6.9 0 7L0 19C0 19.6 0.4 20 1 20L11 20L11 18L2 18L2 8ZM17.1 6L11 6L11 2L14.5 2L17.1 6ZM5.5 2L9 2L9 6L2.9 6L5.5 2Z" fill="#333333"></path>
<path d="M24 16.3L19.7 16.3L18 12L16.3 16.3H12L15.7 19.4L13.7 24L18 21.2L22.3 24L20.3 19.4L24 16.3Z" fill="#333333"></path>
</svg>